<svg height="419pt" viewBox="-2 0 419 419.61953" width="419pt" xmlns="http://www.w3.org/2000/svg"><path d="m407.308594 245.25v121.351562c.003906 15.964844-12.941406 28.910157-28.910156 28.910157h-197.890626c15.972657 0 28.917969-12.941407 28.921876-28.910157v-121.351562c-.007813-8.632812 3.847656-16.820312 10.511718-22.308594.71875-.582031 1.457032-1.140625 2.226563-1.660156.773437-.519531 1.5625-1 2.382812-1.453125.820313-.449219 1.660157-.847656 2.527344-1.21875.871094-.371094 1.75-.6875 2.652344-.96875 2.785156-.863281 5.683593-1.300781 8.597656-1.300781h140.070313c15.96875 0 28.910156 12.945312 28.910156 28.910156zm0 0" fill="#e48e66"/><path d="m371.859375 210.449219v5.890625h-133.53125c-2.914063 0-5.8125.4375-8.597656 1.300781-.898438.277344-1.785157.601563-2.652344.96875-.867187.371094-1.707031.78125-2.527344 1.21875-.820312.445313-1.613281.929687-2.382812 1.453125-.769531.519531-1.507813 1.070312-2.226563 1.660156-6.664062 5.488282-10.519531 13.675782-10.511718 22.308594v121.351562c-.003907 15.96875-12.949219 28.910157-28.921876 28.910157h-3.039062c-10.695312 0-20.523438-5.898438-25.550781-15.339844l1.339843-1.332031 26.050782-25.917969-28.757813-28.902344-2-2.007812v-144.863281c.003907-15.964844 12.953125-28.90625 28.917969-28.898438h64.859375c8.117187 0 15.859375 3.40625 21.339844 9.390625l2.402343 2.621094 17.289063 18.929687c1.371094 1.492188 3.304687 2.34375 5.332031 2.347656h54.25c15.96875-.003906 28.917969 12.941407 28.917969 28.910157zm0 0" fill="#f8ec7d"/><path d="m266.070312 104v56.261719l-2.402343-2.621094c-5.480469-5.984375-13.222657-9.390625-21.339844-9.390625h-64.859375c-15.964844-.007812-28.914062 12.933594-28.917969 28.898438v77.121093h-109.28125c15.96875-.003906 28.90625-12.953125 28.898438-28.917969v-121.351562c.003906-15.96875 12.953125-28.90625 28.921875-28.898438h140.070312c15.964844-.007812 28.910156 12.933594 28.910156 28.898438zm0 0" fill="#e48e66"/><path d="m230.621094 69.210938v5.890624h-133.53125c-15.96875-.007812-28.917969 12.929688-28.921875 28.898438v121.351562c.007812 15.964844-12.929688 28.914063-28.898438 28.917969h-3.039062c-15.972657 0-28.917969-12.949219-28.921875-28.917969v-189.441406c.003906-15.96875 12.953125-28.914062 28.921875-28.910156h64.847656c8.121094-.003906 15.863281 3.410156 21.339844 9.398438l19.691406 21.550781c1.371094 1.492187 3.304687 2.339843 5.332031 2.339843h54.257813c15.972656.003907 28.917969 12.949219 28.921875 28.921876zm0 0" fill="#f8ec7d"/><path d="m148.550781 322.011719 2 2.007812 28.757813 28.902344-26.050782 25.917969-1.339843 1.332031-32.609375 32.449219v-35.882813h-.910156c-33.457032 0-48.839844-14.167969-49.4375-14.769531-36.792969-30.449219-28.953126-73.570312-28.953126-73.867188l1.210938-6.941406 3.609375 6.03125c27.742187 46.128906 65.132813 43.417969 74.480469 41.910156v-36.480468zm0 0" fill="#6fe3ff"/><path d="m378.832031 209.351562c-.617187-19.386718-16.496093-34.789062-35.890625-34.8125h-54.25c-.0625-.003906-.121094-.027343-.164062-.070312l-15.457032-16.917969v-53.550781c-.023437-19.648438-15.820312-35.640625-35.46875-35.898438-.621093-19.386718-16.503906-34.789062-35.898437-34.816406h-54.261719c-.0625.003906-.121094-.019531-.164062-.058594l-19.6875-21.546874c-6.808594-7.4375-16.425782-11.6718755-26.511719-11.679688h-64.847656c-19.828125.0195312-35.894531 16.082031-35.921875 35.910156v189.441406c.023437 19.828126 16.09375 35.894532 35.921875 35.917969h105.320312v43.777344l-17.277343-17.363281c-2-2.011719-5.015626-2.617188-7.632813-1.535156-2.621094 1.082031-4.332031 3.636718-4.332031 6.472656v30.125c-13.417969.464844-40.175782-3.734375-61.472656-39.152344l-3.609376-6.027344c-1.503906-2.507812-4.40625-3.820312-7.28125-3.285156-2.875.53125-5.117187 2.796875-5.621093 5.675781l-1.207031 6.941407c-.0625.363281-.097657.730468-.101563 1.097656.003906-.257813.019531-.519532.054687-.777344-1.207031 8.035156-5.363281 49.640625 31.371094 80.09375 2.667969 2.375 17.964844 14.757812 47.875 16.277344v29.03125c0 2.828125 1.699219 5.378906 4.3125 6.460937 2.609375 1.085938 5.621094.492188 7.625-1.5l26.800782-26.664062c6.792968 7.390625 16.375 11.59375 26.414062 11.59375h200.929688c19.824218-.023438 35.890624-16.089844 35.910156-35.910157v-121.351562c-.023438-19.652344-15.828125-35.644531-35.476563-35.898438zm-342.601562 37.917969c-12.101563-.011719-21.90625-9.820312-21.921875-21.917969v-189.441406c.019531-12.097656 9.824218-21.898437 21.921875-21.910156h64.847656c6.152344.003906 12.019531 2.585938 16.171875 7.121094l19.703125 21.566406c2.699219 2.929688 6.5 4.597656 10.484375 4.597656h54.257812c11.667969.015625 21.285157 9.160156 21.890626 20.8125h-126.496094c-19.824219.015625-35.890625 16.074219-35.921875 35.898438v121.355468c-.007813 12.09375-9.804688 21.898438-21.898438 21.917969zm31.453125 0c4.859375-6.273437 7.492187-13.984375 7.484375-21.917969v-121.351562c.019531-12.09375 9.828125-21.890625 21.921875-21.898438h140.070312c12.089844.007813 21.894532 9.804688 21.910156 21.898438v41.410156c-5.160156-2.722656-10.90625-4.148437-16.742187-4.15625h-64.859375c-19.820312.015625-35.890625 16.074219-35.917969 35.898438v70.121094zm51.625 122.46875h-.910156c-30.152344 0-44.078126-12.351562-44.558594-12.789062-.132813-.128907-.273438-.253907-.417969-.371094-21.441406-17.746094-26.285156-40.429687-26.984375-54.5 28.589844 37.722656 63.324219 35.652344 73.988281 33.933594 3.390625-.550781 5.882813-3.476563 5.882813-6.910157v-19.519531l17.277344 17.367188 25.824218 25.945312-43.101562 42.882813v-19.039063c0-3.863281-3.132813-7-7-7zm83.121094-3.136719c-.015626 12.097657-9.824219 21.898438-21.921876 21.910157h-3.039062c-6.316406 0-12.328125-2.726563-16.488281-7.480469l23.265625-23.148438c2.742187-2.726562 2.753906-7.160156.027344-9.902343l-28.722657-28.863281v-141.96875c.019531-12.09375 9.824219-21.890626 21.917969-21.898438h64.859375c6.152344.007812 12.019531 2.589844 16.179687 7.117188l19.683594 21.542968c2.695313 2.945313 6.503906 4.625 10.5 4.628906h54.25c11.664063.011719 21.28125 9.152344 21.890625 20.800782h-126.503906c-3.621094 0-7.21875.546875-10.679687 1.617187-1.117188.34375-2.214844.746094-3.292969 1.207031l-.019531.003907-.023438.011719c-1 .425781-1.992188.898437-3.074219 1.480468l-.019531.015625-.035156.015625c-.113282.0625-.226563.132813-.339844.195313-.84375.46875-1.691406.984375-2.59375 1.589843-.398438.277344-.8125.566407-1.234375.878907-.148437.109375-.300781.222656-.445313.335937-.3125.238282-.628906.484375-.964843.753906-.035157.027344-.070313.050782-.101563.078126l-.023437.019531c-8.273438 6.820312-13.058594 16.980469-13.046875 27.699219zm197.878906 0c-.011719 12.09375-9.8125 21.894532-21.910156 21.910157h-169.445313c4.855469-6.273438 7.484375-13.980469 7.476563-21.910157v-121.351562c-.011719-6.515625 2.882812-12.699219 7.898437-16.859375.636719-.515625 1.210937-.941406 1.757813-1.308594.585937-.402343 1.1875-.761719 1.769531-1.085937.683593-.363282 1.324219-.671875 1.921875-.925782.691406-.292968 1.371094-.539062 2-.734374l.015625-.007813c2.117187-.65625 4.320312-.988281 6.535156-.988281h140.070313c12.097656.015625 21.898437 9.816406 21.910156 21.910156zm0 0" fill="#63316d"/></svg>